<svg width="18" height="20" viewBox="0 0 18 20" fill="none" xmlns="http://www.w3.org/2000/svg">
<path d="M15.875 8.75H14.9375V5.9375C14.9375 2.66406 12.2734 0 9 0C5.72656 0 3.0625 2.66406 3.0625 5.9375V8.75H2.125C1.08984 8.75 0.25 9.58984 0.25 10.625V18.125C0.25 19.1602 1.08984 20 2.125 20H15.875C16.9102 20 17.75 19.1602 17.75 18.125V10.625C17.75 9.58984 16.9102 8.75 15.875 8.75ZM11.8125 8.75H6.1875V5.9375C6.1875 4.38672 7.44922 3.125 9 3.125C10.5508 3.125 11.8125 4.38672 11.8125 5.9375V8.75Z" fill="#B08383"/>
</svg>
