<svg width="35" height="35" viewBox="0 0 35 35" fill="none" xmlns="http://www.w3.org/2000/svg">
<path d="M17.7058 0.779907C8.34058 0.779907 0.752686 8.3678 0.752686 17.733C0.752686 27.0983 8.34058 34.6862 17.7058 34.6862C27.071 34.6862 34.6589 27.0983 34.6589 17.733C34.6589 8.3678 27.071 0.779907 17.7058 0.779907ZM17.7058 7.34241C21.0281 7.34241 23.7214 10.0358 23.7214 13.358C23.7214 16.6803 21.0281 19.3737 17.7058 19.3737C14.3835 19.3737 11.6902 16.6803 11.6902 13.358C11.6902 10.0358 14.3835 7.34241 17.7058 7.34241ZM17.7058 30.858C13.6931 30.858 10.0974 29.0397 7.69116 26.1959C8.97632 23.776 11.4919 22.108 14.4246 22.108C14.5886 22.108 14.7527 22.1354 14.9099 22.1832C15.7986 22.4703 16.7283 22.6549 17.7058 22.6549C18.6833 22.6549 19.6199 22.4703 20.5017 22.1832C20.6589 22.1354 20.823 22.108 20.9871 22.108C23.9197 22.108 26.4353 23.776 27.7205 26.1959C25.3142 29.0397 21.7185 30.858 17.7058 30.858Z" fill="black"/>
</svg>
